<svg width="18" height="17" viewBox="0 0 18 17" fill="none" xmlns="http://www.w3.org/2000/svg">
<g clip-path="url(#clip0_28_376)">
<path d="M6.18311 1.94485H11.2456C11.4003 1.94485 11.5269 2.06485 11.5269 2.21152V3.54485H5.90186V2.21152C5.90186 2.06485 6.02842 1.94485 6.18311 1.94485ZM4.21436 2.21152V3.54485H1.96436C0.72334 3.54485 -0.285645 4.50152 -0.285645 5.67818V8.87818H6.46436H10.9644H17.7144V5.67818C17.7144 4.50152 16.7054 3.54485 15.4644 3.54485H13.2144V2.21152C13.2144 1.18152 12.3319 0.344849 11.2456 0.344849H6.18311C5.09678 0.344849 4.21436 1.18152 4.21436 2.21152ZM17.7144 9.94485H10.9644V11.0115C10.9644 11.6015 10.4616 12.0782 9.83936 12.0782H7.58936C6.96709 12.0782 6.46436 11.6015 6.46436 11.0115V9.94485H-0.285645V14.2115C-0.285645 15.3882 0.72334 16.3448 1.96436 16.3448H15.4644C16.7054 16.3448 17.7144 15.3882 17.7144 14.2115V9.94485Z" fill="white"/>
</g>
<defs>
<clipPath id="clip0_28_376">
<rect width="18" height="17" fill="white"/>
</clipPath>
</defs>
</svg>
