<svg width="15" height="17" viewBox="0 0 15 17" fill="none" xmlns="http://www.w3.org/2000/svg">
<path d="M12.7533 3.22402C11.3504 1.82949 9.48214 1.0625 7.49665 1.0625C3.39844 1.0625 0.0636161 4.36953 0.0636161 8.43359C0.0636161 9.73184 0.405134 11.0002 1.05469 12.1191L0 15.9375L3.94085 14.9115C5.02567 15.4992 6.24777 15.808 7.4933 15.808H7.49665C11.5915 15.808 15 12.501 15 8.43691C15 6.46797 14.1562 4.61855 12.7533 3.22402ZM7.49665 14.5662C6.38504 14.5662 5.29687 14.2707 4.34933 13.7129L4.125 13.5801L1.78795 14.1877L2.41071 11.9266L2.26339 11.6941C1.64397 10.718 1.3192 9.59238 1.3192 8.43359C1.3192 5.05684 4.09152 2.30762 7.5 2.30762C9.15067 2.30762 10.7009 2.94512 11.8661 4.10391C13.0312 5.2627 13.7478 6.8 13.7444 8.43691C13.7444 11.817 10.9018 14.5662 7.49665 14.5662ZM10.885 9.97754C10.7009 9.88457 9.78683 9.43965 9.61607 9.37988C9.44531 9.3168 9.32143 9.28691 9.19755 9.47285C9.07366 9.65879 8.71875 10.0705 8.60826 10.1967C8.50112 10.3195 8.39062 10.3361 8.20647 10.2432C7.11496 9.70195 6.39844 9.27695 5.67857 8.05176C5.48772 7.72637 5.86942 7.74961 6.22433 7.0457C6.2846 6.92285 6.25446 6.8166 6.20759 6.72363C6.16071 6.63066 5.78906 5.72422 5.63504 5.35566C5.48438 4.99707 5.33036 5.04688 5.21652 5.04023C5.10938 5.03359 4.98549 5.03359 4.86161 5.03359C4.73772 5.03359 4.53683 5.08008 4.36607 5.2627C4.19531 5.44863 3.71652 5.89355 3.71652 6.8C3.71652 7.70645 4.38281 8.58301 4.47321 8.70586C4.56696 8.82871 5.78237 10.6881 7.64732 11.4883C8.82589 11.993 9.28795 12.0361 9.87723 11.9498C10.2355 11.8967 10.9754 11.5049 11.1295 11.0732C11.2835 10.6416 11.2835 10.273 11.2366 10.1967C11.1931 10.1137 11.0692 10.0672 10.885 9.97754Z" fill="#0284C7"/>
</svg>
